# xmcd CD database file
#
# Track frame offsets:
#	150
#	24164
#	48157
#	78305
#	99715
#	112759
#	139640
#	169697
#
# Disc length: 2443 seconds
#
# Revision: 1
# Processed by: cddbd v1.5.1PL0 Copyright (c) Steve Scherf et al.
# Submitted via: CDex 1.51
#
DISCID=52098908
DTITLE=Charlie Mariano - Due
DYEAR=2004
DGENRE=Jazz
TTITLE0=Savannah Samurai
TTITLE1=Ruby My Dear
TTITLE2=Goodbye
TTITLE3=Glass
TTITLE4=On The Trail
TTITLE5=Namida
TTITLE6=Estate
TTITLE7=Kyoto
EXTD=YEAR: 2004
EXTT0=
EXTT1=
EXTT2=
EXTT3=
EXTT4=
EXTT5=
EXTT6=
EXTT7=
PLAYORDER=
